<?xml version="1.0" encoding="UTF-8"?>
<!-- Uploaded to: SVG Repo, www.svgrepo.com, Generator: SVG Repo Mixer Tools -->
<svg fill="#000000" width="800px" height="800px" version="1.1" viewBox="144 144 512 512" xmlns="http://www.w3.org/2000/svg">
 <g>
  <path d="m400 625.66c-109.16 0-197.75-88.797-197.75-197.75 0-39.254 11.547-77.25 33.379-110 4.8281-7.1367 14.695-9.2344 21.832-4.4062 7.1367 4.8281 9.2344 14.695 4.4062 21.832-18.262 27.289-27.918 59.406-27.918 92.363 0 91.734 74.523 166.26 166.26 166.26 91.734 0 166.26-74.523 166.26-166.26s-74.734-166.26-166.47-166.26c-19.312 0-38.203 2.7305-56.047 8.1875-8.3984 2.5195-17.215-2.0977-19.734-10.496-2.5195-8.3945 2.0977-17.211 10.496-19.73 20.992-6.2969 42.824-9.6562 65.285-9.6562 109.16 0 197.75 88.797 197.75 197.75 0 108.95-88.586 198.16-197.75 198.16z"/>
  <path d="m313.3 275.52c-3.5703 0-7.3477-1.2578-10.289-3.7773-6.7148-5.8789-7.3438-15.746-1.6758-22.254l60.664-69.691c5.668-6.5078 15.746-7.3477 22.254-1.4688 6.5078 5.6641 7.1367 15.742 1.4688 22.25l-60.668 69.484c-3.1484 3.5664-7.5547 5.457-11.754 5.457z"/>
  <path d="m384.05 327.16c-3.1484 0-6.5078-1.0508-9.2383-2.9375l-70.953-51.852c-6.9258-5.0391-8.3945-14.906-3.3594-21.832 5.0391-7.1367 14.906-8.6055 22.043-3.5703l70.742 51.641c6.9297 5.0391 8.6094 14.906 3.3594 22.043-2.9375 4.4102-7.7656 6.5078-12.594 6.5078z"/>
 </g>
</svg>